<svg xmlns="http://www.w3.org/2000/svg" viewBox="0 0 600 560">
<g class="plant-sway" data-pivot-x="300.0" data-pivot-y="560">
<g class="reed-fan" style="--rdur:3.1s;--rdel:-1.2s"><path d="M218.7 554.1 L213.3 530.3 L207.2 507.0 L200.5 484.2 L193.2 462.0 L185.4 440.3 L176.9 419.1 L167.8 398.5 L158.1 378.5 L147.8 359.0 L136.9 340.1 L125.5 321.8 L113.4 304.0 L100.9 286.8 L87.8 270.1 L74.1 254.0 L59.9 238.5 L45.2 223.6 L29.8 209.3 L29.8 209.3 L43.8 224.9 L57.4 240.7 L70.5 257.0 L82.9 273.8 L94.8 291.1 L106.2 308.8 L116.9 327.0 L127.2 345.6 L136.9 364.7 L146.0 384.3 L154.7 404.3 L162.8 424.8 L170.4 445.7 L177.5 467.2 L184.1 489.1 L190.2 511.5 L195.8 534.4 L200.9 557.9Z" fill="#3f6b2a"/><path d="M241.2 554.9 L236.8 528.2 L232.0 502.0 L226.7 476.5 L221.0 451.5 L214.7 427.2 L207.9 403.4 L200.7 380.2 L193.0 357.7 L184.8 335.7 L176.2 314.3 L167.0 293.6 L157.5 273.5 L147.4 254.0 L137.0 235.1 L126.0 216.8 L114.7 199.1 L102.9 182.1 L90.6 165.7 L90.6 165.7 L101.6 182.9 L112.4 200.6 L122.7 218.8 L132.5 237.5 L141.9 256.7 L150.9 276.5 L159.4 296.9 L167.5 317.8 L175.2 339.2 L182.5 361.2 L189.3 383.7 L195.8 406.8 L201.9 430.5 L207.5 454.7 L212.8 479.4 L217.7 504.7 L222.1 530.6 L226.2 557.1Z" fill="#4a7a30"/><path d="M267.0 555.2 L263.9 525.9 L260.5 497.3 L256.7 469.3 L252.5 442.0 L248.0 415.3 L243.1 389.3 L237.9 363.9 L232.3 339.2 L226.4 315.1 L220.1 291.7 L213.4 268.9 L206.5 246.8 L199.2 225.4 L191.6 204.6 L183.6 184.5 L175.4 165.1 L166.8 146.3 L157.8 128.3 L157.8 128.3 L165.1 147.0 L172.4 166.3 L179.3 186.1 L185.9 206.6 L192.2 227.6 L198.3 249.3 L204.0 271.5 L209.4 294.4 L214.6 317.9 L219.5 341.9 L224.1 366.6 L228.5 391.9 L232.6 417.9 L236.4 444.4 L240.0 471.6 L243.4 499.4 L246.4 527.8 L249.2 556.8Z" fill="#436f2c"/><path d="M283.6 555.9 L283.2 522.5 L282.7 489.8 L282.2 457.8 L281.5 426.5 L280.9 395.9 L280.1 366.1 L279.3 337.0 L278.4 308.7 L277.4 281.1 L276.4 254.2 L275.3 228.0 L274.1 202.5 L272.9 177.8 L271.7 153.9 L270.4 130.6 L269.1 108.1 L267.7 86.3 L266.1 65.2 L266.1 65.2 L266.1 86.3 L266.3 108.2 L266.5 130.7 L266.6 154.0 L266.7 178.0 L266.9 202.7 L267.0 228.2 L267.1 254.4 L267.2 281.3 L267.3 308.9 L267.4 337.3 L267.5 366.3 L267.6 396.1 L267.7 426.7 L267.9 457.9 L268.1 489.9 L268.2 522.6 L268.4 556.1Z" fill="#3f6b2a"/><path d="M302.4 555.9 L301.7 521.1 L301.0 487.0 L300.1 453.7 L299.2 421.2 L298.1 389.4 L297.0 358.4 L295.7 328.1 L294.3 298.6 L292.9 269.9 L291.3 241.9 L289.7 214.7 L288.0 188.2 L286.2 162.5 L284.3 137.6 L282.4 113.4 L280.3 90.0 L278.2 67.3 L275.9 45.4 L275.9 45.4 L276.6 67.4 L277.4 90.2 L278.1 113.6 L278.8 137.9 L279.5 162.8 L280.1 188.6 L280.7 215.1 L281.3 242.3 L281.8 270.3 L282.3 299.0 L282.8 328.5 L283.3 358.8 L283.8 389.8 L284.3 421.5 L284.7 454.0 L285.2 487.3 L285.6 521.3 L286.0 556.1Z" fill="#4a7a30"/><path d="M323.2 556.3 L324.0 531.7 L324.9 507.5 L325.9 483.9 L326.9 460.8 L328.0 438.3 L329.1 416.3 L330.3 394.8 L331.5 373.9 L332.8 353.4 L334.2 333.5 L335.6 314.2 L337.1 295.3 L338.7 277.0 L340.4 259.2 L342.1 242.0 L344.0 225.2 L345.9 209.0 L347.7 193.3 L347.7 193.3 L344.1 208.7 L340.7 224.7 L337.4 241.3 L334.3 258.4 L331.3 276.1 L328.4 294.3 L325.7 313.1 L323.1 332.4 L320.6 352.3 L318.2 372.7 L316.0 393.7 L314.0 415.2 L312.1 437.3 L310.4 459.9 L308.8 483.0 L307.4 506.7 L306.1 530.9 L305.0 555.7Z" fill="#436f2c"/><path d="M345.8 556.7 L347.7 533.7 L349.8 511.2 L352.1 489.2 L354.5 467.7 L357.1 446.7 L359.9 426.2 L362.8 406.1 L365.9 386.6 L369.1 367.5 L372.6 349.0 L376.2 330.8 L380.0 313.2 L384.1 296.1 L388.3 279.4 L392.7 263.2 L397.4 247.5 L402.2 232.3 L407.1 217.4 L407.1 217.4 L400.6 231.6 L394.5 246.5 L388.6 261.9 L382.9 277.8 L377.5 294.2 L372.2 311.2 L367.2 328.7 L362.5 346.7 L358.0 365.2 L353.7 384.3 L349.7 403.9 L346.0 424.0 L342.5 444.6 L339.3 465.7 L336.3 487.3 L333.6 509.5 L331.2 532.1 L329.0 555.3Z" fill="#3f6b2a"/><path d="M375.0 557.0 L378.2 532.2 L381.7 507.9 L385.6 484.1 L389.8 460.9 L394.2 438.2 L399.0 416.0 L404.1 394.4 L409.5 373.2 L415.2 352.6 L421.3 332.5 L427.6 312.9 L434.4 293.8 L441.4 275.3 L448.8 257.2 L456.6 239.7 L464.7 222.6 L473.1 206.0 L481.8 189.9 L481.8 189.9 L471.7 205.2 L462.1 221.2 L452.8 237.8 L443.9 254.9 L435.3 272.7 L427.2 291.0 L419.3 309.9 L411.9 329.3 L404.8 349.4 L398.1 370.0 L391.8 391.1 L385.9 412.9 L380.4 435.2 L375.3 458.0 L370.6 481.4 L366.3 505.4 L362.4 529.9 L358.9 555.0Z" fill="#4a7a30"/><path d="M412.8 558.3 L417.2 540.9 L422.0 523.7 L427.3 507.0 L433.1 490.6 L439.2 474.5 L445.8 458.8 L452.8 443.4 L460.3 428.4 L468.3 413.6 L476.7 399.2 L485.5 385.1 L494.9 371.4 L504.7 358.0 L515.1 344.9 L526.0 332.1 L537.3 319.6 L549.2 307.5 L561.5 295.6 L561.5 295.6 L547.9 306.0 L534.9 317.1 L522.3 328.5 L510.2 340.5 L498.6 352.8 L487.4 365.6 L476.8 378.9 L466.6 392.6 L456.9 406.7 L447.7 421.3 L439.1 436.3 L431.0 451.8 L423.4 467.7 L416.4 484.1 L409.9 500.9 L403.9 518.1 L398.5 535.7 L393.7 553.7Z" fill="#436f2c"/></g>
<g class="reed-fan" style="--rdur:2.4s;--rdel:-0.4s"><path d="M241.9 553.1 L237.0 536.7 L231.7 520.6 L225.7 504.9 L219.2 489.6 L212.2 474.7 L204.7 460.1 L196.6 446.1 L187.9 432.4 L178.8 419.1 L169.2 406.3 L159.0 393.9 L148.4 381.9 L137.3 370.4 L125.7 359.2 L113.7 348.5 L101.3 338.2 L88.4 328.3 L74.8 319.0 L74.8 319.0 L86.9 330.0 L98.6 341.2 L109.7 352.7 L120.4 364.4 L130.6 376.5 L140.2 388.8 L149.4 401.4 L158.0 414.3 L166.2 427.4 L174.0 440.9 L181.3 454.6 L188.1 468.6 L194.5 482.9 L200.5 497.4 L206.1 512.3 L211.3 527.5 L216.0 543.0 L220.3 558.9Z" fill="#4f7d33"/><path d="M241.9 553.1 L237.0 536.7 L231.7 520.6 L225.7 504.9 L219.2 489.6 L212.2 474.7 L204.7 460.1 L196.6 446.1 L187.9 432.4 L178.8 419.1 L169.2 406.3 L159.0 393.9 L148.4 381.9 L137.3 370.4 L125.7 359.2 L113.7 348.5 L111.1 351.2 L122.3 362.6 L132.9 374.3 L143.1 386.4 L152.7 398.8 L161.9 411.5 L170.6 424.5 L178.9 437.9 L186.6 451.6 L193.9 465.6 L200.7 480.0 L207.1 494.7 L213.0 509.7 L218.4 525.1 L223.4 540.8 L227.9 556.9Z" fill="#86b85c" opacity=".55"/><path d="M257.4 554.7 L254.6 534.6 L251.4 514.9 L248.0 495.7 L244.2 476.9 L240.0 458.6 L235.6 440.7 L230.8 423.3 L225.6 406.3 L220.2 389.8 L214.4 373.8 L208.3 358.3 L201.9 343.2 L195.2 328.6 L188.3 314.5 L181.0 300.8 L173.5 287.6 L165.7 275.0 L157.5 262.9 L157.5 262.9 L163.9 276.0 L170.2 289.4 L176.2 303.2 L182.0 317.3 L187.5 331.8 L192.7 346.8 L197.7 362.1 L202.4 377.8 L206.8 393.9 L211.1 410.4 L215.0 427.3 L218.8 444.6 L222.4 462.4 L225.7 480.5 L228.8 499.1 L231.7 518.0 L234.4 537.4 L236.9 557.3Z" fill="#5a8f3a"/><path d="M257.4 554.7 L254.6 534.6 L251.4 514.9 L248.0 495.7 L244.2 476.9 L240.0 458.6 L235.6 440.7 L230.8 423.3 L225.6 406.3 L220.2 389.8 L214.4 373.8 L208.3 358.3 L201.9 343.2 L195.2 328.6 L188.3 314.5 L181.0 300.8 L177.9 302.3 L184.2 316.3 L190.2 330.7 L195.9 345.5 L201.4 360.7 L206.6 376.4 L211.5 392.5 L216.2 409.0 L220.6 425.9 L224.7 443.3 L228.6 461.0 L232.2 479.2 L235.5 497.9 L238.6 517.0 L241.5 536.4 L244.0 556.4Z" fill="#86b85c" opacity=".55"/><path d="M271.0 555.2 L268.9 532.1 L266.6 509.5 L264.0 487.5 L261.1 465.9 L258.0 444.9 L254.6 424.4 L251.0 404.4 L247.1 384.9 L242.9 365.9 L238.5 347.5 L233.8 329.5 L228.9 312.1 L223.8 295.3 L218.5 278.9 L213.0 263.1 L207.2 247.9 L201.2 233.1 L194.8 219.0 L194.8 219.0 L199.2 233.9 L203.5 249.1 L207.6 264.8 L211.6 280.9 L215.4 297.5 L219.0 314.6 L222.4 332.2 L225.6 350.2 L228.6 368.7 L231.6 387.6 L234.3 407.1 L236.9 427.0 L239.4 447.4 L241.7 468.3 L243.9 489.7 L246.0 511.6 L247.9 534.0 L249.6 556.8Z" fill="#548736"/><path d="M271.0 555.2 L268.9 532.1 L266.6 509.5 L264.0 487.5 L261.1 465.9 L258.0 444.9 L254.6 424.4 L251.0 404.4 L247.1 384.9 L242.9 365.9 L238.5 347.5 L233.8 329.5 L228.9 312.1 L223.8 295.3 L218.5 278.9 L213.0 263.1 L209.5 264.2 L214.0 280.2 L218.3 296.7 L222.5 313.7 L226.4 331.2 L230.1 349.2 L233.6 367.7 L237.0 386.7 L240.1 406.1 L243.1 426.1 L245.9 446.6 L248.5 467.5 L250.9 488.9 L253.2 510.9 L255.2 533.3 L257.1 556.3Z" fill="#86b85c" opacity=".55"/><path d="M311.5 555.9 L311.0 529.1 L310.5 502.9 L309.9 477.2 L309.1 452.2 L308.3 427.7 L307.4 403.8 L306.4 380.6 L305.4 357.8 L304.2 335.7 L303.0 314.2 L301.7 293.2 L300.3 272.8 L298.9 253.1 L297.4 233.9 L295.9 215.2 L294.3 197.2 L292.7 179.8 L290.8 163.0 L290.8 163.0 L290.8 179.9 L291.0 197.4 L291.2 215.5 L291.4 234.1 L291.5 253.4 L291.6 273.2 L291.7 293.6 L291.8 314.5 L291.9 336.1 L292.0 358.2 L292.1 380.9 L292.2 404.2 L292.4 428.1 L292.5 452.5 L292.7 477.5 L292.9 503.1 L293.1 529.3 L293.3 556.1Z" fill="#4f7d33"/><path d="M311.5 555.9 L311.0 529.1 L310.5 502.9 L309.9 477.2 L309.1 452.2 L308.3 427.7 L307.4 403.8 L306.4 380.6 L305.4 357.8 L304.2 335.7 L303.0 314.2 L301.7 293.2 L300.3 272.8 L298.9 253.1 L297.4 233.9 L295.9 215.2 L292.8 215.4 L293.5 234.0 L294.1 253.3 L294.7 273.1 L295.2 293.4 L295.7 314.4 L296.2 335.9 L296.7 358.1 L297.1 380.8 L297.6 404.1 L298.0 427.9 L298.3 452.4 L298.7 477.4 L299.0 503.1 L299.4 529.3 L299.7 556.0Z" fill="#86b85c" opacity=".55"/><path d="M307.2 556.0 L307.0 530.1 L306.7 504.8 L306.4 480.1 L306.1 455.9 L305.7 432.3 L305.2 409.3 L304.6 386.8 L304.0 364.9 L303.4 343.5 L302.7 322.7 L302.0 302.5 L301.2 282.8 L300.4 263.7 L299.5 245.2 L298.7 227.2 L297.8 209.8 L296.9 192.9 L295.8 176.6 L295.8 176.6 L295.0 192.9 L294.4 209.8 L293.8 227.2 L293.2 245.2 L292.6 263.8 L292.1 282.9 L291.5 302.5 L291.0 322.8 L290.5 343.6 L290.1 364.9 L289.7 386.9 L289.3 409.3 L289.0 432.4 L288.7 456.0 L288.5 480.1 L288.4 504.9 L288.2 530.2 L288.1 556.0Z" fill="#5a8f3a"/><path d="M307.2 556.0 L307.0 530.1 L306.7 504.8 L306.4 480.1 L306.1 455.9 L305.7 432.3 L305.2 409.3 L304.6 386.8 L304.0 364.9 L303.4 343.5 L302.7 322.7 L302.0 302.5 L301.2 282.8 L300.4 263.7 L299.5 245.2 L298.7 227.2 L295.5 227.2 L295.4 245.2 L295.3 263.7 L295.3 282.9 L295.2 302.5 L295.1 322.8 L295.0 343.6 L295.0 364.9 L294.9 386.8 L294.9 409.3 L294.8 432.4 L294.8 456.0 L294.8 480.1 L294.8 504.9 L294.8 530.2 L294.8 556.0Z" fill="#86b85c" opacity=".55"/><path d="M349.5 556.5 L351.0 532.9 L352.6 509.8 L354.4 487.2 L356.2 465.2 L358.2 443.6 L360.3 422.5 L362.5 402.0 L364.9 381.9 L367.4 362.4 L370.0 343.3 L372.7 324.7 L375.6 306.7 L378.7 289.1 L381.9 272.1 L385.3 255.5 L388.8 239.4 L392.4 223.8 L396.1 208.7 L396.1 208.7 L390.8 223.3 L385.9 238.6 L381.1 254.5 L376.5 270.8 L372.1 287.7 L367.9 305.1 L363.9 323.1 L360.0 341.6 L356.4 360.6 L352.9 380.2 L349.7 400.3 L346.7 420.9 L343.9 442.0 L341.3 463.7 L338.9 485.8 L336.8 508.5 L334.8 531.7 L333.1 555.5Z" fill="#548736"/><path d="M349.5 556.5 L351.0 532.9 L352.6 509.8 L354.4 487.2 L356.2 465.2 L358.2 443.6 L360.3 422.5 L362.5 402.0 L364.9 381.9 L367.4 362.4 L370.0 343.3 L372.7 324.7 L375.6 306.7 L378.7 289.1 L381.9 272.1 L385.3 255.5 L382.6 254.8 L378.4 271.3 L374.4 288.2 L370.6 305.7 L367.0 323.7 L363.5 342.2 L360.2 361.2 L357.1 380.8 L354.2 400.9 L351.4 421.4 L348.9 442.6 L346.5 464.2 L344.3 486.3 L342.3 509.0 L340.5 532.2 L338.8 555.8Z" fill="#86b85c" opacity=".55"/><path d="M361.1 557.7 L364.6 536.1 L368.5 515.0 L372.7 494.3 L377.3 474.1 L382.2 454.3 L387.4 435.0 L392.9 416.1 L398.8 397.7 L405.1 379.7 L411.7 362.1 L418.6 344.9 L426.0 328.2 L433.7 311.8 L441.8 295.9 L450.3 280.5 L459.2 265.4 L468.5 250.7 L478.1 236.4 L478.1 236.4 L466.8 249.5 L456.0 263.2 L445.7 277.5 L435.7 292.4 L426.1 307.7 L416.9 323.6 L408.1 340.0 L399.8 356.9 L391.8 374.4 L384.3 392.3 L377.2 410.8 L370.5 429.8 L364.4 449.3 L358.6 469.3 L353.3 489.9 L348.5 510.9 L344.1 532.3 L340.2 554.3Z" fill="#4f7d33"/><path d="M361.1 557.7 L364.6 536.1 L368.5 515.0 L372.7 494.3 L377.3 474.1 L382.2 454.3 L387.4 435.0 L392.9 416.1 L398.8 397.7 L405.1 379.7 L411.7 362.1 L418.6 344.9 L426.0 328.2 L433.7 311.8 L441.8 295.9 L450.3 280.5 L447.3 278.6 L437.8 293.6 L428.8 309.2 L420.1 325.2 L411.8 341.7 L403.9 358.7 L396.4 376.2 L389.4 394.2 L382.7 412.7 L376.4 431.6 L370.6 451.1 L365.2 471.0 L360.1 491.4 L355.5 512.3 L351.3 533.7 L347.5 555.5Z" fill="#86b85c" opacity=".55"/><path d="M395.5 558.1 L399.6 536.0 L404.2 514.4 L409.1 493.3 L414.5 472.7 L420.2 452.5 L426.3 432.7 L432.8 413.4 L439.8 394.5 L447.1 376.1 L454.9 358.1 L463.1 340.5 L471.7 323.3 L480.8 306.6 L490.3 290.2 L500.4 274.4 L510.9 258.9 L521.8 243.8 L533.1 229.0 L533.1 229.0 L520.0 242.3 L507.6 256.3 L495.6 270.9 L484.0 286.0 L472.9 301.7 L462.2 317.9 L452.0 334.6 L442.3 351.9 L433.1 369.7 L424.3 388.1 L416.1 407.0 L408.4 426.4 L401.2 446.4 L394.5 466.9 L388.4 487.9 L382.8 509.4 L377.7 531.4 L373.1 553.9Z" fill="#5a8f3a"/><path d="M395.5 558.1 L399.6 536.0 L404.2 514.4 L409.1 493.3 L414.5 472.7 L420.2 452.5 L426.3 432.7 L432.8 413.4 L439.8 394.5 L447.1 376.1 L454.9 358.1 L463.1 340.5 L471.7 323.3 L480.8 306.6 L490.3 290.2 L500.4 274.4 L497.2 272.1 L486.2 287.5 L475.7 303.4 L465.5 319.8 L455.9 336.7 L446.7 354.0 L438.0 371.9 L429.7 390.3 L422.0 409.2 L414.7 428.6 L407.9 448.5 L401.5 468.9 L395.7 489.8 L390.3 511.2 L385.4 533.0 L380.9 555.4Z" fill="#86b85c" opacity=".55"/></g>
<g class="reed-fan" style="--rdur:2.8s;--rdel:-2s"><path d="M236.3 553.0 L232.4 540.5 L228.1 528.2 L223.3 516.3 L218.0 504.7 L212.4 493.3 L206.2 482.4 L199.7 471.7 L192.7 461.4 L185.3 451.4 L177.5 441.8 L169.3 432.5 L160.8 423.6 L151.8 414.9 L142.6 406.6 L132.9 398.7 L122.9 391.1 L112.6 383.8 L101.7 377.0 L101.7 377.0 L111.1 385.6 L120.3 394.2 L129.0 403.0 L137.3 412.0 L145.2 421.2 L152.7 430.7 L159.8 440.3 L166.5 450.1 L172.8 460.1 L178.8 470.3 L184.4 480.6 L189.7 491.2 L194.6 502.0 L199.3 512.9 L203.6 524.1 L207.6 535.5 L211.3 547.1 L214.6 559.0Z" fill="#6fa348"/><path d="M236.3 553.0 L232.4 540.5 L228.1 528.2 L223.3 516.3 L218.0 504.7 L212.4 493.3 L206.2 482.4 L199.7 471.7 L192.7 461.4 L185.3 451.4 L177.5 441.8 L169.3 432.5 L160.8 423.6 L151.8 414.9 L142.6 406.6 L132.9 398.7 L130.3 401.5 L139.1 410.1 L147.5 419.0 L155.5 428.2 L163.1 437.6 L170.3 447.2 L177.2 457.0 L183.7 467.2 L189.7 477.5 L195.5 488.1 L200.8 498.9 L205.8 510.0 L210.5 521.4 L214.8 533.0 L218.7 544.8 L222.2 556.9Z" fill="#a4cf78" opacity=".55"/><path d="M247.9 554.4 L244.6 536.8 L240.9 519.5 L236.8 502.7 L232.3 486.3 L227.4 470.2 L222.2 454.6 L216.5 439.4 L210.5 424.6 L204.1 410.2 L197.3 396.3 L190.2 382.7 L182.7 369.7 L174.9 357.0 L166.8 344.7 L158.3 332.9 L149.5 321.5 L140.4 310.6 L130.8 300.2 L130.8 300.2 L138.8 311.8 L146.6 323.6 L154.1 335.7 L161.2 348.2 L168.0 360.9 L174.5 374.0 L180.6 387.5 L186.4 401.2 L191.9 415.3 L197.2 429.7 L202.1 444.5 L206.7 459.6 L211.1 475.1 L215.2 490.8 L219.0 507.0 L222.5 523.5 L225.8 540.4 L228.7 557.6Z" fill="#5a8f3a"/><path d="M247.9 554.4 L244.6 536.8 L240.9 519.5 L236.8 502.7 L232.3 486.3 L227.4 470.2 L222.2 454.6 L216.5 439.4 L210.5 424.6 L204.1 410.2 L197.3 396.3 L190.2 382.7 L182.7 369.7 L174.9 357.0 L166.8 344.7 L158.3 332.9 L155.6 334.8 L163.2 347.0 L170.4 359.6 L177.4 372.5 L184.0 385.8 L190.2 399.5 L196.2 413.5 L201.8 427.9 L207.1 442.7 L212.1 457.9 L216.8 473.4 L221.2 489.2 L225.2 505.5 L228.9 522.1 L232.4 539.1 L235.4 556.5Z" fill="#a4cf78" opacity=".55"/><path d="M294.1 555.5 L293.0 534.9 L291.8 514.8 L290.4 495.0 L288.9 475.8 L287.3 457.0 L285.4 438.6 L283.4 420.7 L281.3 403.3 L279.0 386.3 L276.6 369.8 L274.0 353.7 L271.3 338.1 L268.5 322.9 L265.5 308.3 L262.5 294.1 L259.3 280.3 L256.1 267.0 L252.4 254.3 L252.4 254.3 L253.8 267.5 L255.3 281.0 L256.7 295.0 L258.1 309.4 L259.3 324.2 L260.5 339.5 L261.7 355.1 L262.8 371.3 L263.8 387.8 L264.8 404.8 L265.7 422.2 L266.6 440.1 L267.5 458.4 L268.4 477.1 L269.2 496.3 L270.0 515.9 L270.8 536.0 L271.5 556.5Z" fill="#7cb152"/><path d="M294.1 555.5 L293.0 534.9 L291.8 514.8 L290.4 495.0 L288.9 475.8 L287.3 457.0 L285.4 438.6 L283.4 420.7 L281.3 403.3 L279.0 386.3 L276.6 369.8 L274.0 353.7 L271.3 338.1 L268.5 322.9 L265.5 308.3 L262.5 294.1 L258.7 294.7 L260.7 309.0 L262.5 323.8 L264.3 339.0 L266.0 354.6 L267.6 370.7 L269.1 387.3 L270.6 404.3 L271.9 421.7 L273.2 439.6 L274.4 457.9 L275.6 476.6 L276.6 495.8 L277.6 515.5 L278.6 535.6 L279.4 556.1Z" fill="#a4cf78" opacity=".55"/><path d="M308.9 555.9 L308.5 534.0 L308.0 512.6 L307.5 491.7 L306.8 471.2 L306.1 451.2 L305.3 431.7 L304.4 412.7 L303.4 394.2 L302.4 376.1 L301.2 358.5 L300.0 341.4 L298.7 324.7 L297.4 308.6 L296.1 292.9 L294.7 277.7 L293.2 263.0 L291.7 248.8 L289.9 235.0 L289.9 235.0 L289.3 248.9 L288.9 263.2 L288.6 277.9 L288.2 293.2 L287.9 308.9 L287.5 325.1 L287.2 341.7 L286.9 358.8 L286.5 376.4 L286.3 394.5 L286.0 413.1 L285.8 432.1 L285.6 451.6 L285.5 471.5 L285.4 492.0 L285.4 512.9 L285.4 534.2 L285.5 556.1Z" fill="#6fa348"/><path d="M308.9 555.9 L308.5 534.0 L308.0 512.6 L307.5 491.7 L306.8 471.2 L306.1 451.2 L305.3 431.7 L304.4 412.7 L303.4 394.2 L302.4 376.1 L301.2 358.5 L300.0 341.4 L298.7 324.7 L297.4 308.6 L296.1 292.9 L294.7 277.7 L290.7 277.9 L291.0 293.1 L291.2 308.8 L291.5 325.0 L291.7 341.6 L291.9 358.7 L292.1 376.3 L292.3 394.4 L292.4 412.9 L292.6 431.9 L292.8 451.4 L293.0 471.4 L293.2 491.9 L293.3 512.8 L293.5 534.2 L293.6 556.0Z" fill="#a4cf78" opacity=".55"/><path d="M329.3 556.7 L330.6 537.8 L332.1 519.3 L333.6 501.1 L335.3 483.4 L337.0 466.1 L338.9 449.2 L340.8 432.7 L342.9 416.6 L345.0 400.8 L347.3 385.5 L349.7 370.6 L352.2 356.0 L354.9 341.9 L357.7 328.1 L360.7 314.7 L363.8 301.7 L367.0 289.1 L370.2 276.8 L370.2 276.8 L365.0 288.4 L360.3 300.6 L355.7 313.3 L351.2 326.4 L347.0 339.9 L342.9 353.9 L339.0 368.3 L335.3 383.1 L331.7 398.4 L328.4 414.1 L325.3 430.3 L322.4 446.9 L319.7 463.9 L317.2 481.3 L314.9 499.2 L312.8 517.5 L311.0 536.2 L309.3 555.3Z" fill="#5a8f3a"/><path d="M329.3 556.7 L330.6 537.8 L332.1 519.3 L333.6 501.1 L335.3 483.4 L337.0 466.1 L338.9 449.2 L340.8 432.7 L342.9 416.6 L345.0 400.8 L347.3 385.5 L349.7 370.6 L352.2 356.0 L354.9 341.9 L357.7 328.1 L360.7 314.7 L357.4 313.8 L353.5 327.0 L349.8 340.6 L346.2 354.6 L342.7 369.1 L339.5 384.0 L336.4 399.3 L333.5 415.0 L330.7 431.1 L328.1 447.7 L325.7 464.7 L323.5 482.0 L321.4 499.9 L319.6 518.1 L317.9 536.7 L316.3 555.8Z" fill="#a4cf78" opacity=".55"/><path d="M358.9 557.8 L361.1 542.7 L363.6 527.8 L366.2 513.3 L369.0 499.1 L372.1 485.3 L375.3 471.7 L378.6 458.4 L382.2 445.4 L386.0 432.7 L390.0 420.3 L394.2 408.1 L398.7 396.3 L403.4 384.7 L408.4 373.4 L413.6 362.3 L419.1 351.6 L424.9 341.0 L430.7 330.7 L430.7 330.7 L422.8 339.6 L415.3 349.2 L408.1 359.1 L401.2 369.4 L394.5 380.1 L388.1 391.3 L382.0 402.8 L376.1 414.6 L370.5 426.9 L365.2 439.6 L360.3 452.6 L355.6 466.1 L351.3 479.8 L347.4 494.0 L343.7 508.5 L340.4 523.4 L337.4 538.6 L334.7 554.2Z" fill="#7cb152"/><path d="M358.9 557.8 L361.1 542.7 L363.6 527.8 L366.2 513.3 L369.0 499.1 L372.1 485.3 L375.3 471.7 L378.6 458.4 L382.2 445.4 L386.0 432.7 L390.0 420.3 L394.2 408.1 L398.7 396.3 L403.4 384.7 L408.4 373.4 L413.6 362.3 L410.1 360.2 L403.7 370.8 L397.6 381.7 L391.8 393.0 L386.3 404.6 L381.0 416.6 L375.9 428.9 L371.2 441.6 L366.7 454.6 L362.5 468.0 L358.6 481.7 L354.9 495.8 L351.6 510.2 L348.5 525.0 L345.7 540.0 L343.2 555.5Z" fill="#a4cf78" opacity=".55"/><path d="M391.3 559.3 L395.4 547.2 L399.8 535.3 L404.6 523.7 L409.8 512.3 L415.4 501.1 L421.4 490.1 L427.8 479.3 L434.7 468.7 L441.9 458.3 L449.6 448.1 L457.8 438.1 L466.4 428.3 L475.5 418.7 L485.1 409.3 L495.2 400.1 L505.7 391.1 L516.7 382.3 L528.1 373.6 L528.1 373.6 L515.5 380.6 L503.4 388.0 L491.8 395.8 L480.5 403.9 L469.7 412.3 L459.3 421.1 L449.4 430.2 L439.9 439.6 L430.8 449.4 L422.2 459.5 L414.1 470.0 L406.5 480.8 L399.3 492.0 L392.7 503.5 L386.6 515.4 L381.0 527.5 L375.9 540.0 L371.3 552.7Z" fill="#6fa348"/><path d="M391.3 559.3 L395.4 547.2 L399.8 535.3 L404.6 523.7 L409.8 512.3 L415.4 501.1 L421.4 490.1 L427.8 479.3 L434.7 468.7 L441.9 458.3 L449.6 448.1 L457.8 438.1 L466.4 428.3 L475.5 418.7 L485.1 409.3 L495.2 400.1 L493.0 397.3 L482.1 405.8 L471.8 414.5 L461.8 423.6 L452.3 432.9 L443.3 442.6 L434.7 452.5 L426.6 462.7 L418.9 473.3 L411.7 484.1 L404.9 495.2 L398.7 506.6 L392.9 518.3 L387.5 530.2 L382.7 542.5 L378.3 555.0Z" fill="#a4cf78" opacity=".55"/></g>
</g>
</svg>